# xmcd
#
# Track frame offsets: 
#        182
#        12917
#        24562
#        36882
#        51042
#        62607
#        75447
#        88067
#        100432
#        112420
#        124405
#        136667
#        149397
#        160515
#        174087
#        185175
#        197387
#        209782
#        222675
#        234140
#
# Disc length: 3295 seconds
#
# Revision: 6
# Processed by: cddbd v1.5.2PL0 Copyright (c) Steve Scherf et al.
# Submitted via: ExactAudioCopyFreeDBPlugin 1.0
#
DISCID=1c0cdd14
DTITLE=Wynonie Harris - Good Rocking Tonight
DYEAR=1900
DGENRE=Blues
TTITLE0=Good Rocking Tonight (1947)
TTITLE1=She Just Won't Sell No More (1948)
TTITLE2=Blow Your Brains Out (1947)
TTITLE3=I Want My Fanny Bown (1948)
TTITLE4=All She Wants To Do Is Rock (1949)
TTITLE5=Lollipop Mama (1947)
TTITLE6=Baby, Shame On You (1949)
TTITLE7=I Won't Like My Baby's Pudding (1948)
TTITLE8=Wynonies Boogie (1947)
TTITLE9=Sittin' On It All The Time (1949)
TTITLE10=Good Morning Judge (1950)
TTITLE11=I Feel That Old Age Coming On (1948)
TTITLE12=Lovin Machine (1951)
TTITLE13=Mr. Blues Is Coming To Town (1950)
TTITLE14=Quiet Whiskey (1953)
TTITLE15=Rock Mr Blues (1950)
TTITLE16=Bloodshot Eyes (1951)
TTITLE17=Luscious Women (1951)
TTITLE18=Down Baby Down (1953)
TTITLE19=Keep On Churnin' (Til The Butter Come) (1952)
EXTD=
EXTT0=
EXTT1=
EXTT2=
EXTT3=
EXTT4=
EXTT5=
EXTT6=
EXTT7=
EXTT8=
EXTT9=
EXTT10=
EXTT11=
EXTT12=
EXTT13=
EXTT14=
EXTT15=
EXTT16=
EXTT17=
EXTT18=
EXTT19=
PLAYORDER=
